<?xml version="1.0" encoding="UTF-8"?>
<svg id="Layer_1" data-name="Layer 1" xmlns="http://www.w3.org/2000/svg" viewBox="0 0 1030.57 771.47">
  <defs>
    <style>
      .cls-1 {
        fill: #fff;
      }

      .cls-2 {
        fill: #ffb837;
      }
    </style>
  </defs>
  <g>
    <g>
      <path class="cls-1" d="m122.35,733.86h-14.53v-5.27h35.06v5.27h-14.53v37.12h-5.99v-37.12Z"/>
      <path class="cls-1" d="m189.92,770.98l-9.14-13.02c-1.13.08-2.02.12-2.67.12h-10.47v12.9h-6.06v-42.39h16.53c5.49,0,9.81,1.31,12.96,3.93,3.15,2.63,4.72,6.24,4.72,10.84,0,3.27-.81,6.06-2.42,8.36-1.61,2.3-3.92,3.98-6.9,5.02l10.05,14.23h-6.6Zm-3.21-20.53c2.02-1.66,3.02-4.02,3.02-7.09s-1.01-5.42-3.02-7.05c-2.02-1.64-4.95-2.45-8.78-2.45h-10.29v19.08h10.29c3.83,0,6.76-.83,8.78-2.48Z"/>
      <path class="cls-1" d="m244.73,760.38h-22.53l-4.66,10.6h-6.24l19.19-42.39h6l19.26,42.39h-6.36l-4.66-10.6Zm-2.12-4.84l-9.14-20.77-9.14,20.77h18.29Z"/>
      <path class="cls-1" d="m308.73,728.59l-18.59,42.39h-6l-18.65-42.39h6.54l15.26,34.82,15.38-34.82h6.06Z"/>
      <path class="cls-1" d="m356.99,765.71v5.27h-30.76v-42.39h29.91v5.27h-23.86v13.02h21.25v5.15h-21.25v13.69h24.7Z"/>
      <path class="cls-1" d="m378.91,728.59h6.06v37.12h22.95v5.27h-29.01v-42.39Z"/>
      <path class="cls-1" d="m455.39,728.59h6.06v42.39h-6.06v-42.39Z"/>
      <path class="cls-1" d="m522.73,728.59v42.39h-4.96l-25.43-31.61v31.61h-6.06v-42.39h4.97l25.43,31.61v-31.61h6.05Z"/>
      <path class="cls-1" d="m550.67,769.98c-2.97-.99-5.3-2.27-6.99-3.84l2.24-4.72c1.61,1.45,3.68,2.63,6.21,3.54,2.52.91,5.12,1.36,7.78,1.36,3.51,0,6.14-.59,7.87-1.78s2.6-2.77,2.6-4.75c0-1.45-.48-2.63-1.42-3.54s-2.12-1.6-3.51-2.09c-1.39-.48-3.36-1.03-5.9-1.63-3.19-.77-5.76-1.53-7.72-2.3s-3.63-1.95-5.02-3.54-2.09-3.74-2.09-6.45c0-2.26.6-4.3,1.79-6.12,1.19-1.82,3-3.27,5.42-4.36,2.42-1.09,5.43-1.64,9.03-1.64,2.5,0,4.97.32,7.39.97,2.42.65,4.5,1.58,6.24,2.79l-2,4.84c-1.78-1.13-3.67-1.99-5.69-2.57-2.02-.58-4-.88-5.93-.88-3.43,0-6.01.63-7.72,1.88s-2.57,2.86-2.57,4.84c0,1.45.49,2.63,1.46,3.54.97.91,2.17,1.61,3.6,2.12,1.43.51,3.38,1.04,5.84,1.6,3.19.77,5.75,1.53,7.69,2.3s3.6,1.94,4.99,3.51c1.39,1.58,2.09,3.69,2.09,6.36,0,2.22-.61,4.25-1.82,6.09-1.21,1.84-3.05,3.29-5.51,4.36-2.46,1.07-5.49,1.61-9.08,1.61-3.19,0-6.27-.5-9.23-1.49Z"/>
      <path class="cls-1" d="m601.63,766.62c-3.15-3.23-4.72-7.87-4.72-13.93v-24.1h6.06v23.86c0,9.08,3.98,13.63,11.93,13.63,3.88,0,6.84-1.12,8.9-3.36,2.06-2.24,3.09-5.66,3.09-10.27v-23.86h5.87v24.1c0,6.09-1.57,10.75-4.72,13.96-3.15,3.21-7.55,4.82-13.2,4.82s-10.05-1.61-13.2-4.85Z"/>
      <path class="cls-1" d="m685.62,770.98l-9.14-13.02c-1.13.08-2.02.12-2.67.12h-10.47v12.9h-6.06v-42.39h16.53c5.49,0,9.81,1.31,12.96,3.93,3.15,2.63,4.72,6.24,4.72,10.84,0,3.27-.81,6.06-2.42,8.36-1.61,2.3-3.92,3.98-6.9,5.02l10.05,14.23h-6.6Zm-3.21-20.53c2.02-1.66,3.02-4.02,3.02-7.09s-1.01-5.42-3.02-7.05c-2.02-1.64-4.95-2.45-8.78-2.45h-10.29v19.08h10.29c3.83,0,6.76-.83,8.78-2.48Z"/>
      <path class="cls-1" d="m740.42,760.38h-22.53l-4.66,10.6h-6.24l19.19-42.39h6l19.26,42.39h-6.36l-4.66-10.6Zm-2.12-4.84l-9.14-20.77-9.14,20.77h18.29Z"/>
      <path class="cls-1" d="m806.3,728.59v42.39h-4.96l-25.43-31.61v31.61h-6.06v-42.39h4.97l25.43,31.61v-31.61h6.05Z"/>
      <path class="cls-1" d="m838.6,768.65c-3.41-1.88-6.08-4.46-8.02-7.75-1.94-3.29-2.91-6.99-2.91-11.11s.97-7.82,2.91-11.11c1.94-3.29,4.62-5.87,8.05-7.75,3.43-1.88,7.27-2.82,11.5-2.82,3.31,0,6.34.56,9.08,1.67,2.74,1.11,5.09,2.75,7.03,4.93l-3.94,3.81c-3.19-3.35-7.16-5.02-11.93-5.02-3.15,0-5.99.71-8.54,2.12-2.54,1.41-4.53,3.36-5.96,5.84-1.43,2.48-2.15,5.26-2.15,8.33s.72,5.84,2.15,8.33c1.43,2.48,3.42,4.43,5.96,5.84,2.55,1.41,5.39,2.12,8.54,2.12,4.72,0,8.7-1.7,11.93-5.09l3.94,3.81c-1.94,2.18-4.29,3.84-7.06,4.97-2.76,1.13-5.8,1.7-9.11,1.7-4.24,0-8.06-.94-11.48-2.82Z"/>
      <path class="cls-1" d="m917.78,765.71v5.27h-30.76v-42.39h29.91v5.27h-23.86v13.02h21.25v5.15h-21.25v13.69h24.7Z"/>
    </g>
    <g>
      <path class="cls-1" d="m0,670.67l11.39-13.61c7.28,5.8,15.4,8.86,23.94,8.86,5.48,0,8.44-1.9,8.44-5.06v-.21c0-3.06-2.43-4.75-12.45-7.07-15.72-3.58-27.85-8.01-27.85-23.2v-.21c0-13.71,10.86-23.63,28.58-23.63,12.55,0,22.36,3.38,30.38,9.81l-10.23,14.45c-6.75-4.75-14.13-7.28-20.67-7.28-4.96,0-7.39,2.11-7.39,4.75v.21c0,3.38,2.53,4.85,12.77,7.17,16.98,3.69,27.53,9.18,27.53,23v.21c0,15.09-11.92,24.05-29.85,24.05-13.08,0-25.52-4.11-34.6-12.23Z"/>
      <path class="cls-1" d="m82.28,607.81h59.39v17.4h-39.13v11.18h35.44v16.14h-35.44v11.71h39.66v17.4h-59.91v-73.83Z"/>
      <path class="cls-1" d="m154.64,607.81h22.89l16.77,46.73,16.77-46.73h22.47l-29.96,74.36h-18.98l-29.96-74.36Z"/>
      <path class="cls-1" d="m248.63,607.81h59.39v17.4h-39.13v11.18h35.44v16.14h-35.44v11.71h39.66v17.4h-59.91v-73.83Z"/>
      <path class="cls-1" d="m326.89,607.81h19.09l30.38,39.03v-39.03h20.25v73.83h-17.93l-31.54-40.5v40.5h-20.25v-73.83Z"/>
      <path class="cls-1" d="m452.2,644.94v-.21c0-21.52,16.56-38.4,38.92-38.4,15.08,0,24.79,6.33,31.33,15.4l-15.4,11.92c-4.22-5.27-9.07-8.65-16.14-8.65-10.34,0-17.62,8.75-17.62,19.51v.21c0,11.07,7.28,19.72,17.62,19.72,7.7,0,12.23-3.59,16.67-8.97l15.4,10.97c-6.96,9.6-16.35,16.67-32.7,16.67-21.1,0-38.08-16.14-38.08-38.18Z"/>
      <path class="cls-1" d="m537.12,644.94v-.21c0-21.2,17.09-38.4,39.87-38.4s39.66,16.98,39.66,38.18v.21c0,21.2-17.09,38.39-39.87,38.39s-39.66-16.98-39.66-38.18Zm58.65,0v-.21c0-10.65-7.7-19.94-18.99-19.94s-18.67,9.07-18.67,19.72v.21c0,10.65,7.7,19.94,18.88,19.94s18.78-9.07,18.78-19.72Z"/>
      <path class="cls-1" d="m635.22,607.81h34.91c11.29,0,19.09,2.95,24.05,8.01,4.32,4.22,6.54,9.91,6.54,17.19v.21c0,11.29-6.01,18.78-15.19,22.68l17.62,25.74h-23.63l-14.87-22.36h-8.97v22.36h-20.46v-73.83Zm33.97,35.44c6.96,0,10.97-3.38,10.97-8.76v-.21c0-5.8-4.22-8.76-11.07-8.76h-13.4v17.72h13.5Z"/>
      <path class="cls-1" d="m718.97,607.81h19.09l30.38,39.03v-39.03h20.25v73.83h-17.93l-31.54-40.5v40.5h-20.25v-73.83Z"/>
      <path class="cls-1" d="m809.69,607.81h59.39v17.4h-39.13v11.18h35.44v16.14h-35.44v11.71h39.66v17.4h-59.91v-73.83Z"/>
      <path class="cls-1" d="m887.96,607.81h34.91c11.29,0,19.09,2.95,24.05,8.01,4.32,4.22,6.54,9.91,6.54,17.19v.21c0,11.29-6.01,18.78-15.19,22.68l17.62,25.74h-23.63l-14.87-22.36h-8.97v22.36h-20.46v-73.83Zm33.97,35.44c6.96,0,10.97-3.38,10.97-8.76v-.21c0-5.8-4.22-8.76-11.07-8.76h-13.4v17.72h13.5Z"/>
      <path class="cls-1" d="m966.12,670.67l11.39-13.61c7.28,5.8,15.4,8.86,23.94,8.86,5.49,0,8.44-1.9,8.44-5.06v-.21c0-3.06-2.43-4.75-12.45-7.07-15.72-3.58-27.85-8.01-27.85-23.2v-.21c0-13.71,10.86-23.63,28.58-23.63,12.55,0,22.36,3.38,30.38,9.81l-10.23,14.45c-6.75-4.75-14.13-7.28-20.68-7.28-4.96,0-7.38,2.11-7.38,4.75v.21c0,3.38,2.53,4.85,12.77,7.17,16.98,3.69,27.53,9.18,27.53,23v.21c0,15.09-11.92,24.05-29.85,24.05-13.08,0-25.52-4.11-34.6-12.23Z"/>
    </g>
  </g>
  <g>
    <path class="cls-2" d="m500.58,4.53l-113.79,54.75c-10.49,5.05-6.9,20.82,4.75,20.82h257.85c11.64,0,15.24-15.77,4.75-20.82l-113.79-54.75c-12.56-6.04-27.19-6.04-39.76,0Z"/>
    <path class="cls-1" d="m287.81,174.03l-30.55,135.38c-3.06,13.56.2,27.77,8.85,38.64l124.48,156.44c4.85,6.09,14.33,5.32,18.13-1.48l179.45-321.24c4.08-7.3-1.2-16.29-9.56-16.29h-280.12c-5.12,0-9.55,3.55-10.68,8.54Z"/>
    <path class="cls-2" d="m529.39,517.47h88.5c13.97,0,27.18-6.37,35.88-17.3l121.04-152.11c8.65-10.87,11.91-25.08,8.85-38.64l-39.16-173.54c-2.21-9.81-15.37-11.7-20.25-2.9l-204.43,368.24c-4.05,7.3,1.23,16.26,9.57,16.26Z"/>
  </g>
</svg>