<?xml version="1.0" encoding="UTF-8"?>
<svg id="Layer_1" data-name="Layer 1" xmlns="http://www.w3.org/2000/svg" viewBox="0 0 422.82 109.03">
  <defs>
    <style>
      .cls-1 {
        fill: #fff;
      }

      .cls-2 {
        fill: #ffb837;
      }
    </style>
  </defs>
  <g>
    <path class="cls-2" d="m51.51.96l-23.98,11.54c-2.21,1.06-1.45,4.39,1,4.39h54.33c2.45,0,3.21-3.32,1-4.39L59.88.96c-2.65-1.27-5.73-1.27-8.38,0Z"/>
    <path class="cls-1" d="m6.67,36.67L.24,65.2c-.64,2.86.04,5.85,1.86,8.14l26.23,32.96c1.02,1.28,3.02,1.12,3.82-.31l37.81-67.69c.86-1.54-.25-3.43-2.01-3.43H8.92c-1.08,0-2.01.75-2.25,1.8Z"/>
    <path class="cls-2" d="m57.58,109.03h18.65c2.94,0,5.73-1.34,7.56-3.65l25.5-32.05c1.82-2.29,2.51-5.29,1.86-8.14l-8.25-36.57c-.47-2.07-3.24-2.46-4.27-.61l-43.07,77.59c-.85,1.54.26,3.43,2.02,3.43Z"/>
  </g>
  <g>
    <g>
      <path class="cls-1" d="m136.7,70.64h-4.33v-1.57h10.44v1.57h-4.33v11.05h-1.78v-11.05Z"/>
      <path class="cls-1" d="m156.82,81.69l-2.72-3.88c-.25.02-.52.04-.79.04h-3.12v3.84h-1.8v-12.62h4.92c3.28,0,5.26,1.66,5.26,4.4,0,1.95-1.01,3.35-2.78,3.98l2.99,4.24h-1.97Zm-.05-8.22c0-1.8-1.21-2.83-3.52-2.83h-3.06v5.68h3.06c2.31,0,3.52-1.04,3.52-2.85Z"/>
      <path class="cls-1" d="m173.14,78.53h-6.71l-1.39,3.16h-1.86l5.71-12.62h1.78l5.73,12.62h-1.89l-1.39-3.16Zm-.63-1.44l-2.72-6.18-2.72,6.18h5.44Z"/>
      <path class="cls-1" d="m192.2,69.07l-5.53,12.62h-1.78l-5.55-12.62h1.95l4.54,10.37,4.58-10.37h1.8Z"/>
      <path class="cls-1" d="m206.58,80.12v1.57h-9.16v-12.62h8.91v1.57h-7.1v3.88h6.33v1.53h-6.33v4.07h7.35Z"/>
      <path class="cls-1" d="m213.11,69.07h1.8v11.05h6.83v1.57h-8.64v-12.62Z"/>
      <path class="cls-1" d="m235.88,69.07h1.8v12.62h-1.8v-12.62Z"/>
      <path class="cls-1" d="m255.94,69.07v12.62h-1.48l-7.57-9.41v9.41h-1.8v-12.62h1.48l7.57,9.41v-9.41h1.8Z"/>
      <path class="cls-1" d="m262.18,80.25l.67-1.41c.94.85,2.54,1.46,4.16,1.46,2.18,0,3.12-.85,3.12-1.95,0-3.08-7.64-1.13-7.64-5.82,0-1.95,1.51-3.61,4.83-3.61,1.48,0,3.01.4,4.06,1.12l-.6,1.44c-1.1-.7-2.34-1.03-3.46-1.03-2.14,0-3.06.9-3.06,2,0,3.08,7.64,1.15,7.64,5.79,0,1.93-1.55,3.59-4.88,3.59-1.93,0-3.82-.65-4.83-1.59Z"/>
      <path class="cls-1" d="m278.03,76.24v-7.17h1.8v7.1c0,2.79,1.28,4.06,3.55,4.06s3.57-1.26,3.57-4.06v-7.1h1.75v7.17c0,3.66-2,5.59-5.34,5.59s-5.34-1.93-5.34-5.59Z"/>
      <path class="cls-1" d="m304.45,81.69l-2.72-3.88c-.25.02-.52.04-.79.04h-3.12v3.84h-1.8v-12.62h4.92c3.28,0,5.26,1.66,5.26,4.4,0,1.95-1.01,3.35-2.78,3.98l2.99,4.24h-1.97Zm-.05-8.22c0-1.8-1.21-2.83-3.52-2.83h-3.06v5.68h3.06c2.31,0,3.52-1.04,3.52-2.85Z"/>
      <path class="cls-1" d="m320.77,78.53h-6.71l-1.39,3.16h-1.86l5.71-12.62h1.78l5.73,12.62h-1.89l-1.39-3.16Zm-.63-1.44l-2.72-6.18-2.72,6.18h5.44Z"/>
      <path class="cls-1" d="m340.39,69.07v12.62h-1.48l-7.57-9.41v9.41h-1.8v-12.62h1.48l7.57,9.41v-9.41h1.8Z"/>
      <path class="cls-1" d="m346.76,75.38c0-3.73,2.85-6.45,6.69-6.45,1.95,0,3.64.67,4.79,1.96l-1.17,1.14c-.97-1.03-2.16-1.5-3.55-1.5-2.85,0-4.96,2.05-4.96,4.85s2.11,4.85,4.96,4.85c1.39,0,2.58-.49,3.55-1.52l1.17,1.14c-1.15,1.3-2.85,1.98-4.81,1.98-3.82,0-6.67-2.72-6.67-6.45Z"/>
      <path class="cls-1" d="m373.59,80.12v1.57h-9.16v-12.62h8.91v1.57h-7.1v3.88h6.33v1.53h-6.33v4.07h7.35Z"/>
    </g>
    <g>
      <path class="cls-1" d="m132.37,53.87l3.24-3.87c2.07,1.65,4.38,2.52,6.8,2.52,1.56,0,2.4-.54,2.4-1.44v-.06c0-.87-.69-1.35-3.54-2.01-4.47-1.02-7.91-2.28-7.91-6.59v-.06c0-3.9,3.09-6.71,8.12-6.71,3.57,0,6.35.96,8.63,2.79l-2.91,4.11c-1.92-1.35-4.02-2.07-5.87-2.07-1.41,0-2.1.6-2.1,1.35v.06c0,.96.72,1.38,3.63,2.04,4.83,1.05,7.82,2.61,7.82,6.53v.06c0,4.29-3.39,6.83-8.48,6.83-3.72,0-7.25-1.17-9.83-3.48Z"/>
      <path class="cls-1" d="m155.75,36.01h16.87v4.95h-11.12v3.18h10.07v4.59h-10.07v3.33h11.27v4.95h-17.02v-20.98Z"/>
      <path class="cls-1" d="m176.31,36.01h6.5l4.76,13.28,4.77-13.28h6.38l-8.51,21.13h-5.4l-8.51-21.13Z"/>
      <path class="cls-1" d="m203.02,36.01h16.87v4.95h-11.12v3.18h10.07v4.59h-10.07v3.33h11.27v4.95h-17.02v-20.98Z"/>
      <path class="cls-1" d="m225.26,36.01h5.43l8.63,11.09v-11.09h5.75v20.98h-5.1l-8.96-11.51v11.51h-5.75v-20.98Z"/>
      <path class="cls-1" d="m258.47,46.56v-.06c0-6.11,4.71-10.91,11.06-10.91,4.29,0,7.04,1.8,8.9,4.38l-4.38,3.39c-1.2-1.5-2.58-2.46-4.59-2.46-2.94,0-5.01,2.49-5.01,5.55v.06c0,3.15,2.07,5.61,5.01,5.61,2.19,0,3.48-1.02,4.74-2.55l4.38,3.12c-1.98,2.73-4.65,4.73-9.29,4.73-5.99,0-10.82-4.58-10.82-10.85Z"/>
      <path class="cls-1" d="m282.6,46.56v-.06c0-6.02,4.86-10.91,11.33-10.91s11.27,4.83,11.27,10.85v.06c0,6.02-4.86,10.91-11.33,10.91s-11.27-4.82-11.27-10.85Zm16.66,0v-.06c0-3.03-2.19-5.66-5.39-5.66s-5.31,2.58-5.31,5.61v.06c0,3.03,2.19,5.67,5.36,5.67s5.34-2.58,5.34-5.61Z"/>
      <path class="cls-1" d="m310.48,36.01h9.92c3.21,0,5.42.84,6.83,2.28,1.23,1.2,1.86,2.82,1.86,4.89v.06c0,3.21-1.71,5.33-4.32,6.44l5.01,7.31h-6.71l-4.23-6.35h-2.55v6.35h-5.81v-20.98Zm9.65,10.07c1.98,0,3.12-.96,3.12-2.49v-.06c0-1.65-1.2-2.49-3.15-2.49h-3.81v5.04h3.84Z"/>
      <path class="cls-1" d="m334.28,36.01h5.43l8.63,11.09v-11.09h5.75v20.98h-5.1l-8.96-11.51v11.51h-5.75v-20.98Z"/>
      <path class="cls-1" d="m360.06,36.01h16.87v4.95h-11.12v3.18h10.07v4.59h-10.07v3.33h11.27v4.95h-17.02v-20.98Z"/>
      <path class="cls-1" d="m382.3,36.01h9.92c3.21,0,5.42.84,6.83,2.28,1.23,1.2,1.86,2.82,1.86,4.89v.06c0,3.21-1.71,5.33-4.32,6.44l5.01,7.31h-6.71l-4.23-6.35h-2.55v6.35h-5.81v-20.98Zm9.65,10.07c1.98,0,3.12-.96,3.12-2.49v-.06c0-1.65-1.2-2.49-3.15-2.49h-3.81v5.04h3.84Z"/>
      <path class="cls-1" d="m404.51,53.87l3.24-3.87c2.07,1.65,4.38,2.52,6.8,2.52,1.56,0,2.4-.54,2.4-1.44v-.06c0-.87-.69-1.35-3.54-2.01-4.47-1.02-7.91-2.28-7.91-6.59v-.06c0-3.9,3.09-6.71,8.12-6.71,3.57,0,6.35.96,8.63,2.79l-2.91,4.11c-1.92-1.35-4.02-2.07-5.87-2.07-1.41,0-2.1.6-2.1,1.35v.06c0,.96.72,1.38,3.63,2.04,4.83,1.05,7.82,2.61,7.82,6.53v.06c0,4.29-3.39,6.83-8.48,6.83-3.72,0-7.25-1.17-9.83-3.48Z"/>
    </g>
  </g>
</svg>